<svg width="33" height="48" viewBox="0 0 33 48" fill="none" xmlns="http://www.w3.org/2000/svg">
<g id="Group 96">
<g id="Ellipse 6">
<mask id="path-1-inside-1_895_351" fill="white">
<path d="M33 31.5C33 29.3332 32.5732 27.1876 31.744 25.1857C30.9148 23.1839 29.6994 21.3649 28.1673 19.8327C26.6351 18.3006 24.8161 17.0852 22.8143 16.256C20.8124 15.4268 18.6668 15 16.5 15C14.3332 15 12.1876 15.4268 10.1857 16.256C8.18385 17.0852 6.3649 18.3006 4.83274 19.8327C3.30057 21.3649 2.08519 23.1839 1.25599 25.1857C0.426785 27.1876 -1.89429e-07 29.3332 0 31.5L16.5 31.5H33Z"/>
</mask>
<path d="M33 31.5C33 29.3332 32.5732 27.1876 31.744 25.1857C30.9148 23.1839 29.6994 21.3649 28.1673 19.8327C26.6351 18.3006 24.8161 17.0852 22.8143 16.256C20.8124 15.4268 18.6668 15 16.5 15C14.3332 15 12.1876 15.4268 10.1857 16.256C8.18385 17.0852 6.3649 18.3006 4.83274 19.8327C3.30057 21.3649 2.08519 23.1839 1.25599 25.1857C0.426785 27.1876 -1.89429e-07 29.3332 0 31.5L16.5 31.5H33Z" stroke="#7DE2BC" stroke-width="6" mask="url(#path-1-inside-1_895_351)"/>
</g>
<circle id="Ellipse 7" cx="17" cy="9" r="7.5" stroke="#7DE2BC" stroke-width="3"/>
</g>
</svg>
