<svg width="182" height="182" viewBox="0 0 182 182" fill="none" xmlns="http://www.w3.org/2000/svg">
<g id="Group 54" filter="url(#filter0_d_801_46)">
<circle id="Ellipse 4" cx="84" cy="82" r="59" fill="white"/>
<g id="Group">
<path id="Vector" d="M47.1849 64.3054L46.5123 66.2593L45.3291 66.4576L44.1966 69.7456L45.0063 70.6303L44.3337 72.5842L39.6106 67.4378L40.2944 65.4524L47.1849 64.3054ZM41.7273 67.0519L43.1291 68.5882L43.775 66.7126L41.7273 67.0519Z" fill="#646464"/>
<path id="Vector_2" d="M53.0552 55.252L52.3234 56.3096L51.8443 56.1703C51.7985 56.9861 51.5012 57.7898 50.9531 58.5814C50.5188 59.209 50.0074 59.7002 49.4196 60.0534C48.8319 60.4072 48.2324 60.593 47.6211 60.6105C47.0099 60.6284 46.4565 60.4657 45.9606 60.1223C45.4555 59.7731 45.1045 59.308 44.907 58.7273C44.7104 58.147 44.6749 57.5202 44.8006 56.8471C44.9263 56.174 45.2053 55.5258 45.6367 54.9024C46.0239 54.3427 46.4545 53.8906 46.929 53.5457C47.4027 53.2011 47.8956 52.9868 48.4076 52.9037C48.9192 52.8206 49.4214 52.8853 49.9132 53.0979L48.7061 54.8567C48.3794 54.7653 48.0608 54.8121 47.751 54.9976C47.4405 55.1834 47.1673 55.4467 46.9313 55.7881C46.7359 56.0701 46.614 56.3659 46.565 56.6748C46.5154 56.9842 46.5484 57.2775 46.6626 57.5549C46.7768 57.8326 46.9724 58.0672 47.2499 58.2592C47.5322 58.4546 47.8236 58.5555 48.1253 58.5623C48.427 58.5689 48.7116 58.4935 48.9788 58.3353C49.2461 58.1772 49.476 57.9595 49.6679 57.6821C49.8601 57.4044 49.9873 57.1092 50.0494 56.7954C50.1118 56.4818 50.0898 56.1875 49.9841 55.9126L49.068 57.2363L48.1668 56.6129L50.3823 53.4121L50.9759 53.823L53.0552 55.252Z" fill="#646464"/>
<path id="Vector_3" d="M56.9548 51.4513L54.3524 51.2105L53.4402 52.0938L54.8203 53.5186L53.4137 54.8814L49.1406 50.4698L52.4728 47.2418C52.8423 46.8839 53.2291 46.629 53.6327 46.4769C54.0359 46.325 54.4228 46.2832 54.7937 46.3519C55.1645 46.42 55.4901 46.5994 55.7712 46.8894L55.7943 46.9134C56.1604 47.2909 56.3521 47.7099 56.37 48.1698C56.3879 48.6301 56.2432 49.0902 55.9343 49.551L58.6595 49.7998L56.9548 51.4513ZM53.9955 48.0204C53.8608 48.0125 53.7334 48.0507 53.6149 48.1347C53.4964 48.2191 53.3373 48.3574 53.139 48.5497L52.9241 48.7574C52.6377 49.0506 52.1746 49.5068 51.5347 50.1265L52.4528 51.0743L54.0564 49.5211L54.0683 49.5095C54.2673 49.317 54.4107 49.1629 54.4984 49.047C54.5864 48.931 54.6313 48.8083 54.6334 48.6791C54.6354 48.55 54.5655 48.412 54.4226 48.265C54.2728 48.1099 54.1302 48.0284 53.9955 48.0204Z" fill="#646464"/>
<path id="Vector_4" d="M62.6768 44.2787L59.4803 46.3969L59.9987 47.1785L63.7576 44.648L64.578 45.8864L59.0917 49.5216L55.6997 44.4016L61.186 40.7666L62.0136 42.0004L58.2288 44.5081L58.6783 45.1859L61.8744 43.0681L62.6768 44.2787Z" fill="#646464"/>
<path id="Vector_5" d="M72.6734 42.4126L70.7646 43.2053L69.8315 42.4515L66.6199 43.7852L66.4952 44.9783L64.5864 45.771L65.3048 38.8224L67.2439 38.0171L72.6734 42.4126ZM66.998 40.1505L66.7782 42.2188L68.6101 41.4578L66.998 40.1505Z" fill="#646464"/>
<path id="Vector_6" d="M76.645 35.313L77.0414 36.9335L74.5265 37.549L75.59 41.8942L73.6066 42.3797L72.5432 38.0343L69.9959 38.6577L69.5991 37.0375L76.645 35.313ZM69.9937 38.6497L69.5991 37.0375L76.645 35.313L69.9937 38.6497Z" fill="#646464"/>
<path id="Vector_7" d="M88.0522 34.853L88.0403 36.3385L83.5093 36.302L83.5017 37.1902L87.3363 37.221L87.3246 38.665L83.4907 38.6342L83.4719 40.9582L81.4219 40.9417L81.4708 34.8L88.0522 34.853Z" fill="#646464"/>
<path id="Vector_8" d="M95.0715 36.0407L97.1233 36.4463L96.5139 39.5321C96.3979 40.1181 96.1305 40.6152 95.7113 41.0233C95.2924 41.4309 94.7797 41.7148 94.1728 41.874C93.5662 42.0332 92.9341 42.048 92.2776 41.9181C91.5716 41.779 90.9575 41.5191 90.4347 41.1396C89.912 40.7599 89.53 40.3025 89.2889 39.7667C89.0482 39.2314 88.9824 38.6701 89.0931 38.0829L89.706 34.9805L91.7906 35.3926L91.1773 38.4945C91.0799 38.9885 91.1775 39.386 91.4706 39.6862C91.7638 39.9867 92.1439 40.1827 92.6107 40.2752C92.8549 40.3235 93.106 40.3236 93.3636 40.2756C93.6212 40.228 93.8514 40.1115 94.0543 39.9259C94.2572 39.7407 94.3924 39.4792 94.4586 39.1428L95.0715 36.0407Z" fill="#646464"/>
<path id="Vector_9" d="M105.464 39.7113L104.829 41.254L102.434 40.2692L100.733 44.4064L98.8445 43.6299L100.546 39.4926L98.1206 38.4949L98.7551 36.9521L105.464 39.7113ZM98.1237 38.4872L98.7551 36.9521L105.464 39.7113L98.1237 38.4872Z" fill="#646464"/>
<path id="Vector_10" d="M111.526 43.5085L113.271 44.6618L111.536 47.2857C111.207 47.7842 110.77 48.1426 110.228 48.3614C109.685 48.5798 109.103 48.6477 108.481 48.5648C107.859 48.4819 107.269 48.256 106.711 47.8865C106.111 47.49 105.641 47.0167 105.302 46.4671C104.962 45.9178 104.782 45.3493 104.762 44.7624C104.742 44.1753 104.895 43.631 105.219 43.1298L106.964 40.4919L108.736 41.6639L106.992 44.3015C106.714 44.7214 106.654 45.1262 106.811 45.5153C106.968 45.9046 107.246 46.2303 107.643 46.4925C107.85 46.63 108.082 46.7255 108.339 46.7791C108.595 46.8325 108.853 46.8119 109.111 46.7173C109.369 46.6228 109.593 46.4323 109.782 46.1461L111.526 43.5085Z" fill="#646464"/>
<path id="Vector_11" d="M113.888 53.6541L114.067 51.0469L113.162 50.1564L111.77 51.5701L110.375 50.1965L114.682 45.8186L117.989 49.073C118.355 49.4336 118.619 49.814 118.782 50.2135C118.943 50.6133 118.994 50.9995 118.935 51.3715C118.875 51.7436 118.703 52.0738 118.42 52.3618L118.397 52.3852C118.028 52.7601 117.614 52.9619 117.155 52.9911C116.695 53.0202 116.231 52.8862 115.763 52.5884L115.58 55.319L113.888 53.6541ZM117.247 50.6136C117.252 50.4785 117.21 50.3525 117.123 50.2359C117.037 50.119 116.894 49.9637 116.697 49.7696L116.485 49.5602C116.184 49.281 115.717 48.8288 115.083 48.2039L114.157 49.1446L115.748 50.7103L115.76 50.7223C115.957 50.9165 116.115 51.0559 116.233 51.141C116.351 51.2259 116.475 51.2682 116.604 51.267C116.733 51.2661 116.869 51.1926 117.012 51.0467C117.164 50.8927 117.242 50.7487 117.247 50.6136Z" fill="#646464"/>
<path id="Vector_12" d="M121.193 59.1954L118.998 56.0514L118.23 56.5884L120.851 60.2849L119.633 61.1353L115.865 55.7395L120.9 52.2231L124.669 57.6193L123.455 58.4766L120.856 54.7542L120.189 55.2201L122.385 58.3638L121.193 59.1954Z" fill="#646464"/>
<path id="Vector_13" d="M121.94 66.0793L121.109 64.2057L126.722 61.7136L127.554 63.5871L121.94 66.0793Z" fill="#646464"/>
<path id="Vector_14" d="M127.129 70.0038C127.282 70.5238 127.38 70.9897 127.424 71.4009C127.467 71.8119 127.411 72.1834 127.254 72.5148C127.098 72.8466 126.797 73.0779 126.351 73.2092C125.528 73.4513 124.865 73.2504 124.361 72.6056C123.857 71.961 123.471 71.1852 123.204 70.2771C122.938 69.375 122.839 68.4958 122.907 67.6394C122.975 66.7828 123.423 66.2328 124.251 65.989L124.857 68.0169C124.49 68.1246 124.307 68.359 124.307 68.7197C124.306 69.0802 124.372 69.4835 124.503 69.9292C124.626 70.3485 124.793 70.6902 125.004 70.9542C125.214 71.2179 125.457 71.3096 125.733 71.2283L125.741 71.2258C125.895 71.1805 125.982 71.0539 126.002 70.8462C126.021 70.6385 126.008 70.4263 125.961 70.2094C125.914 69.9921 125.85 69.7343 125.768 69.4357L125.592 68.8387C125.423 68.2651 125.312 67.7573 125.26 67.3142C125.207 66.8711 125.261 66.4703 125.42 66.1117C125.58 65.7533 125.899 65.5035 126.376 65.3626C127.204 65.1191 127.854 65.3329 128.326 66.0046C128.798 66.6757 129.174 67.4867 129.453 68.4365C129.716 69.3285 129.81 70.1861 129.735 71.01C129.661 71.8335 129.207 72.3685 128.373 72.6136L127.785 70.615C128.05 70.5372 128.203 70.3288 128.246 69.991C128.287 69.6527 128.253 69.2662 128.142 68.8318C128.006 68.3697 127.838 67.9953 127.638 67.7081C127.438 67.4211 127.224 67.3109 126.996 67.378C126.757 67.4485 126.645 67.6574 126.662 68.0046C126.677 68.3515 126.745 68.7297 126.866 69.1381L127.129 70.0038Z" fill="#646464"/>
<path id="Vector_15" d="M127.842 84.4602C127.618 84.7024 127.293 84.8286 126.867 84.8381L126.834 84.8386C126.208 84.8524 125.762 84.6026 125.494 84.0916C125.225 83.5796 125.078 82.8397 125.051 81.8722L125.051 81.8552L125.044 81.5318L124.947 77.001L131.087 76.8689L131.2 82.1216C131.208 82.7631 131.087 83.2777 130.834 83.665C130.583 84.0522 130.219 84.2509 129.744 84.2612L129.71 84.2621C129.351 84.2698 129.056 84.2011 128.826 84.0568C128.596 83.9123 128.422 83.6923 128.305 83.3957C128.221 83.8625 128.067 84.2176 127.842 84.4602ZM126.474 82.2312C126.497 82.3858 126.555 82.5091 126.649 82.6011C126.742 82.6932 126.888 82.7369 127.087 82.7331C127.281 82.7284 127.419 82.6787 127.503 82.5826C127.587 82.4872 127.637 82.3613 127.653 82.2062C127.669 82.0504 127.673 81.8181 127.667 81.5084L127.667 81.4999L127.61 78.8614L126.382 78.8879C126.399 79.6677 126.409 80.2223 126.414 80.5516C126.418 80.8807 126.421 81.1061 126.424 81.2278L126.43 81.5348C126.437 81.8448 126.452 82.0766 126.474 82.2312ZM128.807 81.82C128.823 81.9497 128.874 82.0594 128.959 82.1489C129.044 82.2383 129.183 82.2811 129.377 82.2768C129.554 82.2731 129.681 82.2258 129.756 82.1359C129.831 82.0457 129.877 81.931 129.893 81.7923C129.91 81.6538 129.915 81.4515 129.91 81.1862L129.91 81.1781L129.859 78.813L128.73 78.8372C128.743 79.407 128.748 79.7832 128.746 79.9659L128.755 80.3642L128.773 81.2107C128.779 81.4875 128.79 81.6903 128.807 81.82Z" fill="#646464"/>
<path id="Vector_16" d="M129.742 92.2544C129.356 92.8043 128.891 93.2051 128.346 93.4558C127.802 93.707 127.228 93.7766 126.624 93.6651C126.026 93.5543 125.518 93.2849 125.102 92.8559C124.686 92.4273 124.396 91.8883 124.232 91.2389C124.069 90.5894 124.055 89.8925 124.193 89.1473C124.326 88.4288 124.586 87.7905 124.973 87.2318C125.361 86.6732 125.828 86.2603 126.376 85.9931C126.923 85.7256 127.493 85.6468 128.086 85.7568C128.685 85.8675 129.193 86.1458 129.612 86.5915C130.03 87.0376 130.32 87.5892 130.483 88.2466C130.646 88.904 130.661 89.5922 130.527 90.3104C130.39 91.0556 130.128 91.7033 129.742 92.2544ZM125.753 90.3431C125.832 90.6472 125.977 90.909 126.19 91.1289C126.402 91.3476 126.678 91.4889 127.015 91.5516C127.352 91.6133 127.661 91.5791 127.941 91.4481C128.222 91.3172 128.452 91.1219 128.632 90.8627C128.812 90.6031 128.93 90.3213 128.986 90.017C129.044 89.7065 129.033 89.4011 128.954 89.0993C128.875 88.7975 128.727 88.5381 128.511 88.3209C128.295 88.1042 128.022 87.9645 127.689 87.903C127.352 87.8406 127.045 87.8738 126.768 88.0028C126.491 88.1318 126.261 88.3239 126.079 88.5803C125.897 88.8361 125.776 89.1189 125.719 89.4293C125.663 89.7336 125.674 90.0382 125.753 90.3431Z" fill="#646464"/>
<path id="Vector_17" d="M121.617 98.1543L124.092 97.3153L124.565 96.1369L122.724 95.3974L123.455 93.5801L129.154 95.8698L127.424 100.175C127.232 100.652 126.983 101.043 126.676 101.346C126.37 101.649 126.033 101.845 125.666 101.933C125.3 102.021 124.93 101.99 124.555 101.84L124.524 101.827C124.036 101.631 123.69 101.327 123.487 100.914C123.283 100.501 123.228 100.022 123.322 99.4752L120.732 100.357L121.617 98.1543ZM125.716 100.083C125.843 100.036 125.943 99.9497 126.017 99.8244C126.092 99.699 126.18 99.5079 126.284 99.2511L126.395 98.9743C126.537 98.5903 126.775 97.985 127.107 97.1582L125.882 96.6662L125.05 98.738L125.043 98.7536C124.941 99.01 124.872 99.2093 124.839 99.3509C124.806 99.4926 124.815 99.6229 124.865 99.742C124.916 99.8603 125.036 99.9579 125.227 100.034C125.427 100.115 125.59 100.132 125.716 100.083Z" fill="#646464"/>
<path id="Vector_18" d="M119.313 106.95L122.454 109.016L121.332 110.721L116.201 107.346L117.324 105.64L122.526 104.573L119.386 102.506L120.513 100.794L125.643 104.17L124.516 105.882L119.313 106.95ZM119.386 102.506L120.513 100.794L125.643 104.17L119.386 102.506Z" fill="#646464"/>
<path id="Vector_19" d="M113.097 118.871L112.104 117.766L115.476 114.738L114.882 114.077L112.029 116.639L111.064 115.565L113.917 113.003L112.364 111.274L113.889 109.904L117.993 114.473L113.097 118.871Z" fill="#646464"/>
<path id="Vector_20" d="M104.351 117.224L106.836 118.032L107.92 117.372L106.888 115.678L108.56 114.658L111.757 119.903L107.795 122.317C107.356 122.585 106.923 122.748 106.496 122.808C106.069 122.868 105.682 122.823 105.336 122.675C104.989 122.526 104.711 122.279 104.5 121.934L104.483 121.906C104.21 121.457 104.115 121.007 104.198 120.554C104.282 120.101 104.525 119.684 104.928 119.303L102.324 118.459L104.351 117.224ZM106.482 121.223C106.612 121.26 106.744 121.251 106.878 121.195C107.012 121.139 107.198 121.039 107.434 120.895L107.689 120.739C108.033 120.517 108.585 120.174 109.346 119.71L108.659 118.583L106.753 119.745L106.739 119.754C106.503 119.898 106.328 120.017 106.217 120.11C106.106 120.204 106.035 120.314 106.004 120.439C105.974 120.565 106.012 120.715 106.119 120.89C106.231 121.074 106.352 121.185 106.482 121.223Z" fill="#646464"/>
<path id="Vector_21" d="M98.3296 126.198C97.6598 126.144 97.0785 125.946 96.5859 125.605C96.0935 125.263 95.7422 124.804 95.5322 124.227C95.3239 123.654 95.2989 123.08 95.4575 122.505C95.6161 121.929 95.9332 121.405 96.4095 120.935C96.886 120.464 97.4801 120.099 98.1927 119.84C98.8787 119.59 99.5609 119.491 100.239 119.541C100.917 119.592 101.51 119.785 102.018 120.121C102.526 120.457 102.883 120.908 103.089 121.476C103.297 122.047 103.315 122.626 103.144 123.214C102.971 123.8 102.643 124.33 102.159 124.804C101.675 125.277 101.09 125.639 100.403 125.889C99.6915 126.148 98.9997 126.251 98.3296 126.198ZM97.9531 121.791C97.7304 122.013 97.5792 122.271 97.498 122.566C97.4168 122.86 97.4346 123.169 97.5519 123.491C97.6692 123.813 97.8555 124.062 98.1108 124.237C98.3659 124.412 98.6509 124.512 98.9655 124.535C99.2805 124.559 99.5832 124.518 99.8745 124.412C100.171 124.304 100.429 124.14 100.649 123.918C100.869 123.697 101.017 123.438 101.095 123.142C101.172 122.846 101.154 122.539 101.038 122.222C100.921 121.9 100.737 121.652 100.485 121.478C100.233 121.305 99.9507 121.205 99.6378 121.177C99.3242 121.15 99.0196 121.19 98.7237 121.299C98.4326 121.404 98.1758 121.568 97.9531 121.791Z" fill="#646464"/>
<path id="Vector_22" d="M86.1518 128.764L85.3394 122.676L87.3632 122.406L87.7297 125.154L88.7041 122.227L90.5717 121.978L92.3739 124.568L92.0032 121.787L94.035 121.516L94.8471 127.604L92.5275 127.914L89.8954 124.003L88.4141 128.462L86.1518 128.764Z" fill="#646464"/>
<path id="Vector_23" d="M73.97 127.599L74.2077 125.948L76.7709 126.318L77.4094 121.891L79.4307 122.182L78.7914 126.61L81.3871 126.984L81.1493 128.636L73.97 127.599ZM81.3859 126.992L81.1493 128.636L73.97 127.599L81.3859 126.992Z" fill="#646464"/>
<path id="Vector_24" d="M71.0704 124.456L67.9765 123.373L67.2553 125.433L65.3281 124.758L67.3573 118.962L69.2845 119.636L68.5084 121.853L71.6027 122.936L72.3788 120.719L74.3135 121.397L72.2846 127.193L70.3493 126.516L71.0704 124.456Z" fill="#646464"/>
<path id="Vector_25" d="M60.471 117.769L63.7914 119.686L64.2604 118.874L60.3196 116.636L61.0623 115.35L66.7618 118.641L63.6911 123.96L57.9912 120.669L58.727 119.378L62.6586 121.648L63.0656 120.944L59.7447 119.027L60.471 117.769Z" fill="#646464"/>
<path id="Vector_26" d="M54.8501 109.926L54.6855 112.534L55.5957 113.419L56.9793 111.998L58.3827 113.365L54.0984 117.765L50.774 114.529C50.4057 114.17 50.1393 113.791 49.9755 113.392C49.8116 112.993 49.7586 112.608 49.8162 112.235C49.8737 111.863 50.0435 111.532 50.3252 111.242L50.3482 111.219C50.7149 110.842 51.1278 110.638 51.5873 110.606C52.0464 110.575 52.5111 110.706 52.9804 111.001L53.1493 108.27L54.8501 109.926ZM51.5074 112.984C51.5038 113.119 51.5455 113.245 51.6328 113.361C51.7208 113.477 51.8635 113.632 52.0619 113.825L52.2758 114.034C52.5771 114.311 53.0468 114.76 53.6848 115.382L54.6054 114.437L53.0055 112.879L52.9937 112.868C52.7956 112.675 52.6371 112.536 52.5186 112.452C52.4005 112.367 52.2768 112.326 52.1473 112.327C52.0179 112.329 51.8822 112.403 51.7393 112.55C51.589 112.704 51.5117 112.849 51.5074 112.984Z" fill="#646464"/>
<path id="Vector_27" d="M44.6992 106.898L43.5134 105.175L46.1046 103.392C46.5969 103.053 47.1354 102.884 47.72 102.885C48.3051 102.885 48.8701 103.04 49.4159 103.35C49.9613 103.66 50.4237 104.09 50.8032 104.642C51.2113 105.235 51.4695 105.849 51.5784 106.486C51.6879 107.123 51.6416 107.717 51.4402 108.269C51.2392 108.82 50.8937 109.268 50.405 109.611L47.7998 111.404L46.5953 109.653L49.2002 107.861C49.6147 107.576 49.8222 107.223 49.822 106.803C49.8222 106.383 49.6876 105.977 49.4177 105.585C49.2763 105.38 49.0972 105.205 48.8791 105.059C48.6615 104.914 48.415 104.836 48.1402 104.828C47.8653 104.818 47.5866 104.911 47.304 105.106L44.6992 106.898Z" fill="#646464"/>
<path id="Vector_28" d="M47.4534 99.1628L48.3758 100.994L42.8912 103.758L41.9688 101.927L47.4534 99.1628Z" fill="#646464"/>
<path id="Vector_29" d="M42.8631 93.8364L39.3027 95.0451L38.6465 93.1122L44.4622 91.1375L45.1185 93.0707L42.7643 97.832L46.3247 96.6233L46.9834 98.564L41.168 100.539L40.5089 98.5977L42.8631 93.8364ZM46.3247 96.6233L46.9834 98.564L41.168 100.539L46.3247 96.6233Z" fill="#646464"/>
<path id="Vector_30" d="M40.1456 86.4718C40.0766 85.9343 40.0533 85.4587 40.0756 85.0458C40.0979 84.6329 40.212 84.2754 40.4184 83.9725C40.6253 83.6699 40.9591 83.489 41.4202 83.4297C42.2708 83.3203 42.8942 83.624 43.2898 84.3398C43.6859 85.0562 43.9442 85.8835 44.0648 86.8219C44.1847 87.755 44.1435 88.639 43.9415 89.4735C43.7387 90.3085 43.2097 90.7809 42.3535 90.891L42.0755 88.793C42.4541 88.7443 42.6723 88.542 42.7296 88.1858C42.7874 87.8298 42.7865 87.4212 42.7272 86.9603C42.6715 86.5269 42.5604 86.1632 42.3944 85.8692C42.2284 85.5755 42.0028 85.4468 41.7174 85.4835L41.709 85.4844C41.5501 85.5048 41.4443 85.6162 41.3917 85.8181C41.3403 86.02 41.3198 86.2319 41.3318 86.4534C41.343 86.6752 41.3664 86.94 41.4002 87.2479L41.4794 87.8654C41.5555 88.4581 41.5847 88.9773 41.5666 89.4231C41.5485 89.8689 41.4323 90.2562 41.218 90.5848C41.0038 90.9137 40.6496 91.1099 40.1556 91.1734C39.2995 91.2833 38.6915 90.9695 38.3317 90.2318C37.972 89.4945 37.7292 88.6345 37.6029 87.6521C37.4845 86.7304 37.527 85.8685 37.731 85.0667C37.9347 84.2654 38.4677 83.809 39.3293 83.6982L39.5944 85.7645C39.3199 85.7997 39.1359 85.9811 39.041 86.3083C38.9465 86.6357 38.919 87.0227 38.9601 87.4693C39.0215 87.9469 39.1278 88.3431 39.2802 88.6583C39.4323 88.9737 39.6261 89.1159 39.8622 89.0857C40.1092 89.054 40.2523 88.8654 40.2917 88.52C40.3308 88.1748 40.3237 87.7907 40.269 87.3684L40.1456 86.4718Z" fill="#646464"/>
<path id="Vector_31" d="M43.8783 77.3624C43.7337 78.7159 42.5181 79.6964 41.1648 79.5515C39.8111 79.4069 38.8307 78.1917 38.9753 76.8382C39.1204 75.4845 40.3351 74.5041 41.6892 74.6487C43.0425 74.7934 44.023 76.0087 43.8783 77.3624Z" fill="#646464"/>
</g>
<g id="Mask group">
<mask id="mask0_801_46" style="mask-type:alpha" maskUnits="userSpaceOnUse" x="63" y="57" width="42" height="50">
<g id="Group 3">
<path id="SVGID_10_" d="M89.8986 71.2138L83.9423 57.4729L77.986 71.2138L80.4457 87.1745L75.7781 84.5295V101.486L83.9423 106.113L92.1066 101.486V84.5295L87.4389 87.1746L89.8986 71.2138ZM89.7739 88.5325V100.127L83.9423 103.432L78.1107 100.127V88.5325L83.4844 91.5776L80.3939 71.5239L83.9423 63.338L87.4907 71.5239L84.4002 91.5776L89.7739 88.5325Z" fill="black"/>
<path id="SVGID_13_" d="M63.4619 91.6426L72.7925 96.9299V72.8818L63.4619 67.5945V91.6426ZM65.7946 71.5974L70.4598 74.2411V92.927L65.7946 90.2833V71.5974Z" fill="black"/>
<path id="SVGID_16_" d="M95.0928 72.8818V96.9299L104.423 91.6426V67.5945L95.0928 72.8818ZM102.091 90.2833L97.4254 92.927V74.2411L102.091 71.5974V90.2833Z" fill="black"/>
</g>
</mask>
<g mask="url(#mask0_801_46)">
<g id="Group_2">
<path id="Vector_32" d="M104.382 57.4729H63.4619V106.204H104.382V57.4729Z" fill="url(#paint0_linear_801_46)"/>
</g>
</g>
</g>
</g>
<defs>
<filter id="filter0_d_801_46" x="0" y="0" width="182" height="182" filterUnits="userSpaceOnUse" color-interpolation-filters="sRGB">
<feFlood flood-opacity="0" result="BackgroundImageFix"/>
<feColorMatrix in="SourceAlpha" type="matrix" values="0 0 0 0 0 0 0 0 0 0 0 0 0 0 0 0 0 0 127 0" result="hardAlpha"/>
<feOffset dx="7" dy="9"/>
<feGaussianBlur stdDeviation="16"/>
<feComposite in2="hardAlpha" operator="out"/>
<feColorMatrix type="matrix" values="0 0 0 0 0 0 0 0 0 0 0 0 0 0 0 0 0 0 0.15 0"/>
<feBlend mode="normal" in2="BackgroundImageFix" result="effect1_dropShadow_801_46"/>
<feBlend mode="normal" in="SourceGraphic" in2="effect1_dropShadow_801_46" result="shape"/>
</filter>
<linearGradient id="paint0_linear_801_46" x1="61.3526" y1="59.5554" x2="105.915" y2="104.69" gradientUnits="userSpaceOnUse">
<stop stop-color="#00E28C"/>
<stop offset="1" stop-color="#00B7FF"/>
</linearGradient>
</defs>
</svg>
