<svg width="152" height="53" viewBox="0 0 152 53" fill="none" xmlns="http://www.w3.org/2000/svg">
<g id="Group 5">
<g id="Mask group">
<mask id="mask0_801_94" style="mask-type:alpha" maskUnits="userSpaceOnUse" x="0" y="0" width="44" height="53">
<g id="Group 3">
<path id="SVGID_10_" d="M28.1915 14.9466L21.8399 0.293701L15.4883 14.9466L18.1112 31.9666L13.1338 29.1461V47.2284L21.8399 52.1619L30.546 47.2284V29.1461L25.5686 31.9667L28.1915 14.9466ZM28.0585 33.4147V45.7789L21.8399 49.3027L15.6212 45.7789V33.4147L21.3516 36.6619L18.056 15.2773L21.8399 6.5481L25.6237 15.2773L22.3282 36.6619L28.0585 33.4147Z" fill="black"/>
<path id="SVGID_13_" d="M0 36.7314L9.94983 42.3696V16.7254L0 11.0872V36.7314ZM2.48746 15.3558L7.46237 18.1749V38.101L2.48746 35.2818V15.3558Z" fill="black"/>
<path id="SVGID_16_" d="M33.73 16.7254V42.3696L43.6798 36.7314V11.0872L33.73 16.7254ZM41.1924 35.2818L36.2174 38.101V18.1749L41.1924 15.3558V35.2818Z" fill="black"/>
</g>
</mask>
<g mask="url(#mask0_801_94)">
<g id="Group">
<path id="Vector" d="M43.6359 0.293701H0V52.2587H43.6359V0.293701Z" fill="url(#paint0_linear_801_94)"/>
</g>
</g>
</g>
<g id="Big Ukraine Foundation">
<path d="M67.7945 21.8107C68.397 21.932 68.8524 22.1425 69.1608 22.4422C69.4692 22.7347 69.6234 23.1557 69.6234 23.7051V23.7479C69.6234 24.5542 69.2863 25.125 68.6121 25.4603C67.9451 25.7885 66.984 25.9562 65.7289 25.9634H65.7074H65.2878H59.4138V18.0434H66.2238C67.0558 18.0506 67.7192 18.2218 68.2141 18.5572C68.709 18.8925 68.9564 19.367 68.9564 19.9806V20.0234C68.9564 20.4872 68.8596 20.8654 68.6659 21.1579C68.4723 21.4504 68.1818 21.668 67.7945 21.8107ZM64.9758 21.1472C65.3344 21.1472 65.5962 21.1401 65.7612 21.1258C65.9333 21.1044 66.0768 21.0402 66.1915 20.9331C66.3134 20.8261 66.3744 20.6477 66.3744 20.398C66.3744 20.1697 66.317 20.0056 66.2023 19.9057C66.0875 19.8058 65.9405 19.7451 65.7612 19.7237C65.5819 19.6952 65.3201 19.6809 64.9758 19.6809H64.9651H61.899V21.1365C62.6377 21.1365 63.1254 21.1401 63.3621 21.1472H63.8785H64.9758ZM65.3309 24.176C65.7325 24.176 66.0337 24.1653 66.2346 24.1439C66.4354 24.1154 66.5968 24.044 66.7187 23.9299C66.8406 23.8086 66.9016 23.6195 66.9016 23.3626C66.9016 23.1129 66.8406 22.9345 66.7187 22.8275C66.5968 22.7133 66.4354 22.6455 66.2346 22.6241C66.0337 22.5956 65.7325 22.5813 65.3309 22.5813H65.3201H61.899V24.1653C62.9103 24.1653 63.6275 24.1689 64.0506 24.176C64.481 24.176 64.775 24.176 64.9328 24.176H65.3309Z" fill="#171717"/>
<path d="M72.9554 25.9634H70.2982V18.0434H72.9554V25.9634Z" fill="#171717"/>
<path d="M84.0483 25.9634H82.3808L82.1764 25.3533C81.2727 25.9027 80.1968 26.1774 78.9489 26.1774C77.9591 26.1774 77.059 25.9955 76.2486 25.6316C75.4381 25.2677 74.7962 24.7682 74.3228 24.1332C73.8566 23.4982 73.6235 22.7918 73.6235 22.0141C73.6235 21.2221 73.8602 20.5086 74.3336 19.8736C74.807 19.2386 75.4489 18.7427 76.2593 18.3859C77.0698 18.022 77.9663 17.8401 78.9489 17.8401C79.8311 17.8401 80.6308 17.965 81.348 18.2147C82.0652 18.4644 82.6569 18.8319 83.1231 19.317C83.5893 19.7951 83.8905 20.373 84.0268 21.0509L81.2619 21.0616C81.1185 20.6477 80.8316 20.3445 80.4012 20.1518C79.9781 19.9592 79.4976 19.8629 78.9596 19.8629C78.515 19.8629 78.1097 19.9521 77.744 20.1304C77.3782 20.3017 77.0877 20.5514 76.8725 20.8796C76.6645 21.2007 76.5606 21.5789 76.5606 22.0141C76.5606 22.4565 76.6681 22.8418 76.8833 23.17C77.0985 23.4911 77.3889 23.7372 77.7547 23.9085C78.1205 24.0726 78.5221 24.1546 78.9596 24.1546C79.3971 24.1546 79.806 24.0726 80.1861 23.9085C80.5662 23.7443 80.8639 23.5053 81.079 23.1914H78.9919V21.7786H84.0375V22.7098L84.0483 25.9634Z" fill="#171717"/>
<path d="M95.1314 18.0434H97.8425V22.0997C97.8425 22.8703 97.6273 23.566 97.197 24.1867C96.7667 24.8075 96.1857 25.2962 95.4542 25.653C94.7226 26.0026 93.9229 26.1774 93.0551 26.1774C92.1227 26.1774 91.2764 26.0026 90.5161 25.653C89.7559 25.3034 89.1534 24.8217 88.7087 24.2081C88.2712 23.5874 88.0489 22.8917 88.0417 22.1211V18.0434H90.7958V22.1211C90.7958 22.7704 91.0182 23.2485 91.4628 23.5553C91.9147 23.8621 92.449 24.0155 93.0658 24.0155C93.3886 24.0155 93.7077 23.9548 94.0233 23.8335C94.3389 23.7051 94.6007 23.4982 94.8087 23.2128C95.0238 22.9274 95.1314 22.5635 95.1314 22.1211V18.0434Z" fill="#171717"/>
<path d="M103.484 21.6716L107.82 25.9634H104.56L101.332 22.6455V25.9634H98.6752V18.0434H101.332V20.794L104.366 18.0434H107.658L103.484 21.6716Z" fill="#171717"/>
<path d="M114.448 25.9526L112.242 23.3947H110.596V25.9526H108.057V18.0327H114.071C114.738 18.0327 115.326 18.1433 115.835 18.3645C116.352 18.5857 116.75 18.8961 117.03 19.2956C117.316 19.6881 117.46 20.1447 117.46 20.6656V20.7084C117.46 21.3862 117.259 21.9463 116.857 22.3887C116.463 22.8311 115.914 23.1272 115.211 23.277L117.524 25.9526H114.448ZM114.964 20.7298C114.964 20.4515 114.903 20.2482 114.781 20.1197C114.666 19.9913 114.516 19.9128 114.329 19.8843C114.143 19.8557 113.87 19.8415 113.512 19.8415H113.124C112.594 19.8557 111.751 19.8629 110.596 19.8629V21.5646H113.49H113.512C113.87 21.5646 114.143 21.5503 114.329 21.5218C114.516 21.4932 114.666 21.4219 114.781 21.3077C114.903 21.1864 114.964 20.9938 114.964 20.7298Z" fill="#171717"/>
<path d="M128.564 25.9634H125.885L125.143 24.6041H120.635L119.893 25.9634H117.214L121.528 18.0434H124.25L128.564 25.9634ZM122.894 20.4622L121.603 22.8168H124.174L122.894 20.4622Z" fill="#171717"/>
<path d="M131.453 25.9634H128.796V18.0434H131.453V25.9634Z" fill="#171717"/>
<path d="M134.994 25.9634H132.337V18.0434L134.994 25.9634ZM142.503 25.9634H139.857H142.503ZM139.857 22.8917V18.0434H142.503V25.9634H139.857L134.994 21.1151V25.9634H132.337V18.0434H134.994L139.857 22.8917Z" fill="#171717"/>
<path d="M151.027 22.881H146.057V24.0904L151.931 24.0476V25.9634H143.4V18.0434H151.931L151.942 19.9592H146.057V21.0081H151.027V22.881Z" fill="#171717"/>
<path d="M67.9451 28.746V30.6618H62.0711V31.807H67.0414V33.6692H62.0711V36.6659H59.4138V28.746H67.9451Z" fill="#171717"/>
<path d="M73.0827 28.5748C74.0653 28.5748 74.951 28.7567 75.74 29.1206C76.5361 29.4774 77.1565 29.9733 77.6012 30.6083C78.053 31.2362 78.2789 31.9461 78.2789 32.7381C78.2789 33.5229 78.053 34.2293 77.6012 34.8572C77.1565 35.4851 76.5397 35.981 75.7507 36.3449C74.9618 36.7016 74.076 36.88 73.0935 36.88C72.1467 36.88 71.2717 36.7016 70.4684 36.3449C69.6652 35.981 69.0268 35.4851 68.5535 34.8572C68.0873 34.2222 67.8542 33.5158 67.8542 32.7381C67.8542 31.9532 68.0873 31.2433 68.5535 30.6083C69.0268 29.9733 69.6616 29.4774 70.4577 29.1206C71.261 28.7567 72.136 28.5748 73.0827 28.5748ZM73.0935 34.8786C73.4951 34.8786 73.8788 34.793 74.2446 34.6217C74.6175 34.4505 74.9188 34.2043 75.1483 33.8833C75.3778 33.5622 75.4925 33.1805 75.4925 32.7381C75.4925 32.2957 75.3742 31.914 75.1375 31.5929C74.908 31.2647 74.6068 31.0185 74.2338 30.8544C73.8609 30.6832 73.4736 30.5976 73.0719 30.5976C72.6631 30.5976 72.2758 30.6832 71.91 30.8544C71.5443 31.0257 71.2466 31.2754 71.0171 31.6036C70.7948 31.9247 70.6836 32.3028 70.6836 32.7381C70.6836 33.1805 70.7984 33.5622 71.0279 33.8833C71.2574 34.2043 71.555 34.4505 71.9208 34.6217C72.2938 34.793 72.6846 34.8786 73.0935 34.8786Z" fill="#171717"/>
<path d="M85.915 28.746H88.6261V32.8023C88.6261 33.5729 88.4109 34.2686 87.9806 34.8893C87.5503 35.5101 86.9693 35.9988 86.2378 36.3556C85.5062 36.7052 84.7065 36.88 83.8387 36.88C82.9063 36.88 82.06 36.7052 81.2997 36.3556C80.5395 36.0059 79.937 35.5243 79.4923 34.9107C79.0548 34.29 78.8325 33.5943 78.8253 32.8237V28.746H81.5794V32.8237C81.5794 33.473 81.8018 33.951 82.2465 34.2579C82.6983 34.5647 83.2326 34.7181 83.8494 34.7181C84.1722 34.7181 84.4913 34.6574 84.8069 34.5361C85.1225 34.4077 85.3843 34.2008 85.5923 33.9154C85.8074 33.63 85.915 33.2661 85.915 32.8237V28.746Z" fill="#171717"/>
<path d="M92.0623 36.6659H89.405V28.746L92.0623 36.6659ZM99.5715 36.6659H96.925H99.5715ZM96.925 33.5943V28.746H99.5715V36.6659H96.925L92.0623 31.8177V36.6659H89.405V28.746H92.0623L96.925 33.5943Z" fill="#171717"/>
<path d="M109.516 32.7167C109.516 33.4659 109.315 34.1401 108.913 34.7395C108.519 35.3388 107.956 35.8097 107.224 36.1522C106.493 36.4947 105.643 36.6659 104.674 36.6659V36.6766H102.534V36.6659H100.414V28.746H104.664C105.632 28.746 106.482 28.9173 107.213 29.2597C107.952 29.6022 108.519 30.0731 108.913 30.6725C109.315 31.2718 109.516 31.9532 109.516 32.7167ZM104.728 34.5468C105.352 34.5468 105.869 34.397 106.277 34.0973C106.693 33.7905 106.901 33.3303 106.901 32.7167C106.901 32.3742 106.801 32.0638 106.6 31.7856C106.399 31.5002 106.13 31.279 105.793 31.122C105.463 30.9579 105.108 30.8758 104.728 30.8758H103.071V34.5468H104.728Z" fill="#171717"/>
<path d="M119.816 36.6659H117.138L116.395 35.3067H111.888L111.145 36.6659H108.466L112.781 28.746H115.502L119.816 36.6659ZM114.147 31.1648L112.856 33.5194H115.427L114.147 31.1648Z" fill="#171717"/>
<path d="M117.48 30.8865V28.746H126.883L117.48 30.8865ZM126.883 28.746V30.8972H123.526V36.6659H120.88V30.8972H117.48V28.746H126.883Z" fill="#171717"/>
<path d="M130.205 36.6659H127.548V28.746H130.205V36.6659Z" fill="#171717"/>
<path d="M136.037 28.5748C137.02 28.5748 137.905 28.7567 138.694 29.1206C139.49 29.4774 140.111 29.9733 140.555 30.6083C141.007 31.2362 141.233 31.9461 141.233 32.7381C141.233 33.5229 141.007 34.2293 140.555 34.8572C140.111 35.4851 139.494 35.981 138.705 36.3449C137.916 36.7016 137.03 36.88 136.048 36.88C135.101 36.88 134.226 36.7016 133.423 36.3449C132.619 35.981 131.981 35.4851 131.508 34.8572C131.042 34.2222 130.808 33.5158 130.808 32.7381C130.808 31.9532 131.042 31.2433 131.508 30.6083C131.981 29.9733 132.616 29.4774 133.412 29.1206C134.215 28.7567 135.09 28.5748 136.037 28.5748ZM136.048 34.8786C136.449 34.8786 136.833 34.793 137.199 34.6217C137.572 34.4505 137.873 34.2043 138.103 33.8833C138.332 33.5622 138.447 33.1805 138.447 32.7381C138.447 32.2957 138.329 31.914 138.092 31.5929C137.862 31.2647 137.561 31.0185 137.188 30.8544C136.815 30.6832 136.428 30.5976 136.026 30.5976C135.617 30.5976 135.23 30.6832 134.864 30.8544C134.499 31.0257 134.201 31.2754 133.971 31.6036C133.749 31.9247 133.638 32.3028 133.638 32.7381C133.638 33.1805 133.753 33.5622 133.982 33.8833C134.212 34.2043 134.509 34.4505 134.875 34.6217C135.248 34.793 135.639 34.8786 136.048 34.8786Z" fill="#171717"/>
<path d="M144.491 36.6659H141.833V28.746L144.491 36.6659ZM152 36.6659H149.353H152ZM149.353 33.5943V28.746H152V36.6659H149.353L144.491 31.8177V36.6659H141.833V28.746H144.491L149.353 33.5943Z" fill="#171717"/>
</g>
</g>
<defs>
<linearGradient id="paint0_linear_801_94" x1="-2.24927" y1="2.51443" x2="45.2704" y2="50.6449" gradientUnits="userSpaceOnUse">
<stop stop-color="#00E28C"/>
<stop offset="1" stop-color="#00B7FF"/>
</linearGradient>
</defs>
</svg>
