<svg width="159" height="53" viewBox="0 0 159 53" fill="none" xmlns="http://www.w3.org/2000/svg">
<g id="Group 93">
<g id="big Ukraine Auctions">
<path id="Vector" d="M136.884 34.8281C137.668 34.8281 138.352 34.8841 138.936 34.9961C139.528 35.1001 140.02 35.3281 140.412 35.6801C140.812 36.0321 141.012 36.5441 141.012 37.2161C141.012 38.4561 140.46 39.2961 139.356 39.7361C138.26 40.1681 137.028 40.3841 135.66 40.3841C134.3 40.3841 133.04 40.1641 131.88 39.7241C130.72 39.2761 130.14 38.4281 130.14 37.1801L133.2 37.1681C133.2 37.7201 133.448 38.0721 133.944 38.2241C134.448 38.3681 135.036 38.4401 135.708 38.4401C136.34 38.4401 136.88 38.3481 137.328 38.1641C137.784 37.9801 138.012 37.6801 138.012 37.2641V37.2521C138.012 37.0201 137.872 36.8481 137.592 36.7361C137.312 36.6241 137.012 36.5561 136.692 36.5321C136.372 36.5081 135.988 36.4921 135.54 36.4841H134.64C133.776 36.4841 133.024 36.4321 132.384 36.3281C131.752 36.2161 131.22 35.9761 130.788 35.6081C130.356 35.2401 130.14 34.6961 130.14 33.9761C130.14 32.7281 130.7 31.9161 131.82 31.5401C132.948 31.1561 134.228 30.9641 135.66 30.9641C137.004 30.9641 138.232 31.1841 139.344 31.6241C140.456 32.0641 141.012 32.9121 141.012 34.1681H138C138 33.7681 137.772 33.4721 137.316 33.2801C136.868 33.0801 136.32 32.9681 135.672 32.9441C134.976 32.9441 134.388 33.0241 133.908 33.1841C133.428 33.3441 133.188 33.5961 133.188 33.9401C133.188 34.3001 133.432 34.5401 133.92 34.6601C134.408 34.7801 134.96 34.8401 135.576 34.8401L136.884 34.8281Z" fill="black"/>
<path id="Vector_2" d="M121.005 40.108H118.041V31.228L121.005 40.108ZM129.381 40.108H126.429H129.381ZM126.429 36.664V31.228H129.381V40.108H126.429L121.005 34.672V40.108H118.041V31.228H121.005L126.429 36.664Z" fill="black"/>
<path id="Vector_3" d="M111.515 31.0359C112.611 31.0359 113.599 31.2399 114.479 31.6479C115.367 32.0479 116.059 32.6039 116.555 33.3159C117.059 34.0199 117.311 34.8159 117.311 35.7039C117.311 36.5839 117.059 37.3759 116.555 38.0799C116.059 38.7839 115.371 39.3399 114.491 39.7479C113.611 40.1479 112.623 40.3479 111.527 40.3479C110.471 40.3479 109.495 40.1479 108.599 39.7479C107.703 39.3399 106.991 38.7839 106.463 38.0799C105.943 37.3679 105.683 36.5759 105.683 35.7039C105.683 34.8239 105.943 34.0279 106.463 33.3159C106.991 32.6039 107.699 32.0479 108.587 31.6479C109.483 31.2399 110.459 31.0359 111.515 31.0359ZM111.527 38.1039C111.975 38.1039 112.403 38.0079 112.811 37.8159C113.227 37.6239 113.563 37.3479 113.819 36.9879C114.075 36.6279 114.203 36.1999 114.203 35.7039C114.203 35.2079 114.071 34.7799 113.807 34.4199C113.551 34.0519 113.215 33.7759 112.799 33.5919C112.383 33.3999 111.951 33.3039 111.503 33.3039C111.047 33.3039 110.615 33.3999 110.207 33.5919C109.799 33.7839 109.467 34.0639 109.211 34.4319C108.963 34.7919 108.839 35.2159 108.839 35.7039C108.839 36.1999 108.967 36.6279 109.223 36.9879C109.479 37.3479 109.811 37.6239 110.219 37.8159C110.635 38.0079 111.071 38.1039 111.527 38.1039Z" fill="black"/>
<path id="Vector_4" d="M104.95 40.108H101.986V31.228H104.95V40.108Z" fill="black"/>
<path id="Vector_5" d="M90.6963 33.628V31.228H101.184L90.6963 33.628ZM101.184 31.228V33.64H97.4403V40.108H94.4883V33.64H90.6963V31.228H101.184Z" fill="black"/>
<path id="Vector_6" d="M78.6597 35.68C78.6597 34.792 78.9197 33.992 79.4397 33.28C79.9677 32.568 80.6837 32.012 81.5877 31.612C82.4997 31.204 83.5077 31 84.6117 31C85.6037 31 86.4997 31.16 87.2997 31.48C88.0997 31.792 88.7557 32.236 89.2677 32.812C89.7797 33.38 90.1197 34.048 90.2877 34.816H87.2157C87.0957 34.496 86.8917 34.22 86.6037 33.988C86.3237 33.748 86.0077 33.568 85.6557 33.448C85.3037 33.328 84.9597 33.268 84.6237 33.268C84.1517 33.268 83.6917 33.364 83.2437 33.556C82.8037 33.748 82.4437 34.028 82.1637 34.396C81.8917 34.756 81.7557 35.184 81.7557 35.68C81.7557 36.176 81.8917 36.608 82.1637 36.976C82.4357 37.336 82.7877 37.612 83.2197 37.804C83.6597 37.988 84.1277 38.08 84.6237 38.08C85.1757 38.08 85.6837 37.948 86.1477 37.684C86.6197 37.42 86.9677 37.044 87.1917 36.556H90.2757C90.0997 37.316 89.7557 37.984 89.2437 38.56C88.7317 39.128 88.0797 39.568 87.2877 39.88C86.4957 40.192 85.6037 40.348 84.6117 40.348C83.5157 40.348 82.5117 40.144 81.5997 39.736C80.6957 39.328 79.9797 38.768 79.4517 38.056C78.9237 37.344 78.6597 36.552 78.6597 35.68Z" fill="black"/>
<path id="Vector_7" d="M74.9471 31.228H77.9711V35.776C77.9711 36.64 77.7311 37.42 77.2511 38.116C76.7711 38.812 76.1231 39.36 75.3071 39.76C74.4911 40.152 73.5991 40.348 72.6311 40.348C71.5911 40.348 70.6471 40.152 69.7991 39.76C68.9511 39.368 68.2791 38.828 67.7831 38.14C67.2951 37.444 67.0471 36.664 67.0391 35.8V31.228H70.1111V35.8C70.1111 36.528 70.3591 37.064 70.8551 37.408C71.3591 37.752 71.9551 37.924 72.6431 37.924C73.0031 37.924 73.3591 37.856 73.7111 37.72C74.0631 37.576 74.3551 37.344 74.5871 37.024C74.8271 36.704 74.9471 36.296 74.9471 35.8V31.228Z" fill="black"/>
<path id="Vector_8" d="M67.66 40.108H64.672L63.844 38.584H58.816L57.988 40.108H55L59.812 31.228H62.848L67.66 40.108ZM61.336 33.94L59.896 36.58H62.764L61.336 33.94Z" fill="black"/>
<path id="Vector_9" d="M157.908 24.652H152.364V26.008L158.916 25.96V28.108H149.4V19.228H158.916L158.928 21.376H152.364V22.552H157.908V24.652Z" fill="black"/>
<path id="Vector_10" d="M140.024 28.108H137.06V19.228L140.024 28.108ZM148.4 28.108H145.448H148.4ZM145.448 24.664V19.228H148.4V28.108H145.448L140.024 22.672V28.108H137.06V19.228H140.024L145.448 24.664Z" fill="black"/>
<path id="Vector_11" d="M136.075 28.108H133.111V19.228H136.075V28.108Z" fill="black"/>
<path id="Vector_12" d="M132.851 28.108H129.863L129.035 26.584H124.007L123.179 28.108H120.191L125.003 19.228H128.039L132.851 28.108ZM126.527 21.94L125.087 24.58H127.955L126.527 21.94Z" fill="black"/>
<path id="Vector_13" d="M117.106 28.0961L114.646 25.2281H112.81V28.0961H109.978V19.2161H116.686C117.43 19.2161 118.086 19.3401 118.654 19.5881C119.23 19.8361 119.674 20.1841 119.986 20.6321C120.306 21.0721 120.466 21.5841 120.466 22.1681V22.2161C120.466 22.9761 120.242 23.6041 119.794 24.1001C119.354 24.5961 118.742 24.9281 117.958 25.0961L120.538 28.0961H117.106ZM117.682 22.2401C117.682 21.9281 117.614 21.7001 117.478 21.5561C117.35 21.4121 117.182 21.3241 116.974 21.2921C116.766 21.2601 116.462 21.2441 116.062 21.2441H115.63C115.038 21.2601 114.098 21.2681 112.81 21.2681V23.1761H116.038H116.062C116.462 23.1761 116.766 23.1601 116.974 23.1281C117.182 23.0961 117.35 23.0161 117.478 22.8881C117.614 22.7521 117.682 22.5361 117.682 22.2401Z" fill="black"/>
<path id="Vector_14" d="M104.877 23.296L109.713 28.108H106.077L102.477 24.388V28.108H99.5132V19.228H102.477V22.312L105.861 19.228H109.533L104.877 23.296Z" fill="black"/>
<path id="Vector_15" d="M95.5603 19.228H98.5843V23.776C98.5843 24.64 98.3443 25.42 97.8643 26.116C97.3843 26.812 96.7363 27.36 95.9203 27.76C95.1043 28.152 94.2123 28.348 93.2443 28.348C92.2043 28.348 91.2603 28.152 90.4123 27.76C89.5643 27.368 88.8923 26.828 88.3963 26.14C87.9083 25.444 87.6603 24.664 87.6523 23.8V19.228H90.7243V23.8C90.7243 24.528 90.9723 25.064 91.4683 25.408C91.9723 25.752 92.5683 25.924 93.2563 25.924C93.6163 25.924 93.9723 25.856 94.3243 25.72C94.6763 25.576 94.9683 25.344 95.2003 25.024C95.4403 24.704 95.5603 24.296 95.5603 23.8V19.228Z" fill="black"/>
<path id="Vector_16" d="M83.1978 28.108H81.3378L81.1098 27.424C80.1018 28.04 78.9018 28.348 77.5098 28.348C76.4058 28.348 75.4018 28.144 74.4978 27.736C73.5938 27.328 72.8778 26.768 72.3498 26.056C71.8298 25.344 71.5698 24.552 71.5698 23.68C71.5698 22.792 71.8338 21.992 72.3618 21.28C72.8898 20.568 73.6058 20.012 74.5098 19.612C75.4138 19.204 76.4138 19 77.5098 19C78.4938 19 79.3858 19.14 80.1858 19.42C80.9858 19.7 81.6458 20.112 82.1658 20.656C82.6858 21.192 83.0218 21.84 83.1738 22.6L80.0898 22.612C79.9298 22.148 79.6098 21.808 79.1298 21.592C78.6578 21.376 78.1218 21.268 77.5218 21.268C77.0258 21.268 76.5738 21.368 76.1658 21.568C75.7578 21.76 75.4338 22.04 75.1938 22.408C74.9618 22.768 74.8458 23.192 74.8458 23.68C74.8458 24.176 74.9658 24.608 75.2058 24.976C75.4458 25.336 75.7698 25.612 76.1778 25.804C76.5858 25.988 77.0338 26.08 77.5218 26.08C78.0098 26.08 78.4658 25.988 78.8898 25.804C79.3138 25.62 79.6458 25.352 79.8858 25H77.5578V23.416H83.1858V24.46L83.1978 28.108Z" fill="black"/>
<path id="Vector_17" d="M70.8248 28.108H67.8608V19.228H70.8248V28.108Z" fill="black"/>
<path id="Vector_18" d="M65.0682 23.452C65.7402 23.588 66.2482 23.824 66.5922 24.16C66.9362 24.488 67.1082 24.96 67.1082 25.576V25.624C67.1082 26.528 66.7322 27.168 65.9802 27.544C65.2362 27.912 64.1642 28.1 62.7642 28.108H62.7402H62.2722H55.7202V19.228H63.3162C64.2442 19.236 64.9842 19.428 65.5362 19.804C66.0882 20.18 66.3642 20.712 66.3642 21.4V21.448C66.3642 21.968 66.2562 22.392 66.0402 22.72C65.8242 23.048 65.5002 23.292 65.0682 23.452ZM61.9242 22.708C62.3242 22.708 62.6162 22.7 62.8002 22.684C62.9922 22.66 63.1522 22.588 63.2802 22.468C63.4162 22.348 63.4842 22.148 63.4842 21.868C63.4842 21.612 63.4202 21.428 63.2922 21.316C63.1642 21.204 63.0002 21.136 62.8002 21.112C62.6002 21.08 62.3082 21.064 61.9242 21.064H61.9122H58.4922V22.696C59.3162 22.696 59.8602 22.7 60.1242 22.708H60.7002H61.9242ZM62.3202 26.104C62.7682 26.104 63.1042 26.092 63.3282 26.068C63.5522 26.036 63.7322 25.956 63.8682 25.828C64.0042 25.692 64.0722 25.48 64.0722 25.192C64.0722 24.912 64.0042 24.712 63.8682 24.592C63.7322 24.464 63.5522 24.388 63.3282 24.364C63.1042 24.332 62.7682 24.316 62.3202 24.316H62.3082H58.4922V26.092C59.6202 26.092 60.4202 26.096 60.8922 26.104C61.3722 26.104 61.7002 26.104 61.8762 26.104H62.3202Z" fill="black"/>
</g>
<g id="Mask group">
<mask id="mask0_892_336" style="mask-type:alpha" maskUnits="userSpaceOnUse" x="0" y="0" width="44" height="53">
<g id="Group 3">
<path id="SVGID_10_" d="M28.1915 14.9466L21.8399 0.293701L15.4883 14.9466L18.1112 31.9666L13.1338 29.1461V47.2284L21.8399 52.1619L30.546 47.2284V29.1461L25.5686 31.9667L28.1915 14.9466ZM28.0585 33.4147V45.7789L21.8399 49.3027L15.6212 45.7789V33.4147L21.3516 36.6619L18.056 15.2773L21.8399 6.5481L25.6237 15.2773L22.3282 36.6619L28.0585 33.4147Z" fill="black"/>
<path id="SVGID_13_" d="M0 36.7314L9.94983 42.3696V16.7254L0 11.0872V36.7314ZM2.48746 15.3558L7.46237 18.1749V38.101L2.48746 35.2818V15.3558Z" fill="black"/>
<path id="SVGID_16_" d="M33.73 16.7254V42.3696L43.6798 36.7314V11.0872L33.73 16.7254ZM41.1924 35.2818L36.2174 38.101V18.1749L41.1924 15.3558V35.2818Z" fill="black"/>
</g>
</mask>
<g mask="url(#mask0_892_336)">
<g id="Group">
<path id="Vector_19" d="M43.6359 0.293701H0V52.2587H43.6359V0.293701Z" fill="url(#paint0_linear_892_336)"/>
</g>
</g>
</g>
</g>
<defs>
<linearGradient id="paint0_linear_892_336" x1="-2.24927" y1="2.51443" x2="45.2704" y2="50.6449" gradientUnits="userSpaceOnUse">
<stop stop-color="#00E28C"/>
<stop offset="1" stop-color="#00B7FF"/>
</linearGradient>
</defs>
</svg>
